<?xml version="1.0" standalone="no"?>
<!DOCTYPE svg PUBLIC "-//W3C//DTD SVG 20010904//EN"
 "http://www.w3.org/TR/2001/REC-SVG-20010904/DTD/svg10.dtd">
<svg version="1.0" xmlns="http://www.w3.org/2000/svg"
 width="1024.000000pt" height="1024.000000pt" viewBox="0 0 1024.000000 1024.000000"
 preserveAspectRatio="xMidYMid meet">

<g transform="translate(0.000000,1024.000000) scale(0.100000,-0.100000)"
fill="#000000" stroke="none">
<path d="M3415 8950 c-353 -38 -665 -281 -790 -614 -64 -171 -59 146 -62
-3626 l-3 -3425 960 960 960 960 960 -960 960 -960 0 1278 0 1277 -158 0
c-249 0 -431 29 -662 106 -765 254 -1309 924 -1410 1734 -15 122 -12 381 5
512 91 690 530 1299 1150 1598 303 146 582 210 915 210 l159 0 -5 68 c-35 416
-313 748 -720 859 l-99 27 -1045 2 c-575 1 -1077 -2 -1115 -6z"/>
<path d="M6098 7669 c-956 -75 -1676 -913 -1608 -1873 69 -967 907 -1694 1873
-1626 968 69 1695 906 1627 1874 -43 605 -393 1142 -930 1429 -286 152 -630
222 -962 196z m302 -1109 l0 -480 480 0 480 0 0 -160 0 -160 -480 0 -480 0 0
-480 0 -480 -160 0 -160 0 0 480 0 480 -480 0 -480 0 0 160 0 160 480 0 480 0
0 480 0 480 160 0 160 0 0 -480z"/>
</g>
</svg>
