<?xml version="1.0" encoding="UTF-8"?>
<svg xmlns="http://www.w3.org/2000/svg" xmlns:xlink="http://www.w3.org/1999/xlink" width="64px" height="64px" viewBox="0 0 64 64" version="1.1">
<g id="surface1">
<path style=" stroke:none;fill-rule:nonzero;fill:rgb(1.568627%,0%,60.392157%);fill-opacity:1;" d="M 64 33.601562 C 64.109375 34.152344 64 34.726562 63.699219 35.199219 L 48 56 C 46.113281 58.519531 43.148438 60 40 60 L 23.320312 60 C 21.730469 60 20.203125 60.632812 19.078125 61.761719 L 17.421875 63.421875 C 17.042969 63.796875 16.535156 64.011719 16 64.011719 C 15.464844 64.011719 14.957031 63.796875 14.578125 63.421875 C 14.203125 63.042969 13.988281 62.535156 13.988281 62 C 13.988281 61.464844 14.203125 60.957031 14.578125 60.578125 L 16.238281 58.921875 C 18.117188 57.046875 20.667969 55.996094 23.320312 56 L 40 56 C 41.886719 56 43.667969 55.109375 44.800781 53.601562 L 58.941406 34.761719 C 56.753906 34.195312 54.433594 34.90625 52.941406 36.601562 L 43.761719 47.058594 C 43.382812 47.664062 42.710938 48.023438 42 48 L 26 48 C 24.894531 48 24 47.105469 24 46 C 24 44.894531 24.894531 44 26 44 L 40 44 C 40 41.789062 38.210938 40 36 40 L 34.140625 40 C 32.347656 40.003906 30.59375 39.476562 29.101562 38.480469 C 23.261719 34.578125 15.480469 35.347656 10.519531 40.320312 L 3.421875 47.421875 C 2.636719 48.203125 1.363281 48.203125 0.578125 47.421875 C -0.203125 46.636719 -0.203125 45.363281 0.578125 44.578125 L 7.679688 37.480469 C 14 31.175781 23.886719 30.195312 31.320312 35.140625 C 32.15625 35.699219 33.136719 36 34.140625 36 L 36 36 C 39.355469 36.019531 42.339844 38.125 43.480469 41.28125 L 49.878906 34 C 53.183594 30.230469 58.765625 29.484375 62.941406 32.261719 C 63.449219 32.554688 63.828125 33.035156 64 33.601562 Z M 64 33.601562 "/>
<path style=" stroke:none;fill-rule:nonzero;fill:rgb(46.666667%,67.45098%,94.509804%);fill-opacity:1;" d="M 32 2 L 40 2 L 40 8 C 40 9.105469 39.105469 10 38 10 L 34 10 C 32.894531 10 32 9.105469 32 8 Z M 32 2 "/>
<path style=" stroke:none;fill-rule:nonzero;fill:rgb(1.568627%,0%,60.392157%);fill-opacity:1;" d="M 44 28 L 28 28 C 24.6875 28 22 25.3125 22 22 L 22 6 C 22 2.6875 24.6875 0 28 0 L 44 0 C 47.3125 0 50 2.6875 50 6 L 50 22 C 50 25.3125 47.3125 28 44 28 Z M 28 4 C 26.894531 4 26 4.894531 26 6 L 26 22 C 26 23.105469 26.894531 24 28 24 L 44 24 C 45.105469 24 46 23.105469 46 22 L 46 6 C 46 4.894531 45.105469 4 44 4 Z M 28 4 "/>
</g>
</svg>
